<mxfile host="app.diagrams.net" modified="2022-06-10T11:07:12.251Z" agent="5.0 (Windows NT 10.0; Win64; x64) AppleWebKit/537.36 (KHTML, like Gecko) Chrome/102.0.5005.63 Safari/537.36 Edg/102.0.1245.33" etag="0A_fA4WVrtY2PWFUngIp" version="19.0.3" type="github">
  <diagram name="Page-1" id="e7e014a7-5840-1c2e-5031-d8a46d1fe8dd">
    <mxGraphModel dx="2506" dy="542" grid="1" gridSize="10" guides="1" tooltips="1" connect="1" arrows="1" fold="1" page="1" pageScale="1" pageWidth="1169" pageHeight="826" background="none" math="0" shadow="0">
      <root>
        <mxCell id="0" />
        <mxCell id="1" parent="0" />
        <mxCell id="ndIeQPS9fR7mqByQMIB2-12" style="edgeStyle=orthogonalEdgeStyle;rounded=0;orthogonalLoop=1;jettySize=auto;html=1;entryX=0.5;entryY=0;entryDx=0;entryDy=0;" parent="1" source="MWQz74-mzpOBfi5y9opP-53" target="MWQz74-mzpOBfi5y9opP-56" edge="1">
          <mxGeometry relative="1" as="geometry" />
        </mxCell>
        <mxCell id="MWQz74-mzpOBfi5y9opP-53" value="SÃ©lection du questionnaire" style="whiteSpace=wrap;html=1;fillColor=none;strokeColor=rgb(0, 0, 0);fontColor=rgb(0, 0, 0);" parent="1" vertex="1">
          <mxGeometry x="-470.5" y="560" width="120" height="60" as="geometry" />
        </mxCell>
        <mxCell id="QAEg0vHoT1FQQfkNYD-j-29" style="edgeStyle=orthogonalEdgeStyle;rounded=0;orthogonalLoop=1;jettySize=auto;html=1;entryX=0.5;entryY=0;entryDx=0;entryDy=0;fontSize=9;strokeWidth=1;" parent="1" source="5" target="QAEg0vHoT1FQQfkNYD-j-24" edge="1">
          <mxGeometry relative="1" as="geometry" />
        </mxCell>
        <mxCell id="5" value="" style="ellipse;shape=startState;fillColor=#000000;strokeColor=#ff0000;" parent="1" vertex="1">
          <mxGeometry x="-425.5" y="20" width="30" height="30" as="geometry" />
        </mxCell>
        <mxCell id="7" value="Login" style="fillColor=none;" parent="1" vertex="1">
          <mxGeometry x="-465.5" y="238" width="110" height="50" as="geometry" />
        </mxCell>
        <mxCell id="MWQz74-mzpOBfi5y9opP-49" style="edgeStyle=orthogonalEdgeStyle;rounded=0;orthogonalLoop=1;jettySize=auto;html=1;entryX=0.5;entryY=0;entryDx=0;entryDy=0;fontColor=default;" parent="1" source="7" target="MWQz74-mzpOBfi5y9opP-47" edge="1">
          <mxGeometry relative="1" as="geometry" />
        </mxCell>
        <mxCell id="MWQz74-mzpOBfi5y9opP-48" style="edgeStyle=orthogonalEdgeStyle;rounded=0;orthogonalLoop=1;jettySize=auto;html=1;fontColor=default;exitX=1;exitY=0.5;exitDx=0;exitDy=0;entryX=0;entryY=0.5;entryDx=0;entryDy=0;" parent="1" source="MWQz74-mzpOBfi5y9opP-47" target="QAEg0vHoT1FQQfkNYD-j-10" edge="1">
          <mxGeometry relative="1" as="geometry">
            <mxPoint x="-135.5" y="220" as="targetPoint" />
            <Array as="points">
              <mxPoint x="-320" y="370" />
              <mxPoint x="-320" y="370" />
            </Array>
          </mxGeometry>
        </mxCell>
        <mxCell id="ndIeQPS9fR7mqByQMIB2-10" style="edgeStyle=orthogonalEdgeStyle;rounded=0;orthogonalLoop=1;jettySize=auto;html=1;exitX=0.5;exitY=1;exitDx=0;exitDy=0;entryX=0.5;entryY=0;entryDx=0;entryDy=0;" parent="1" source="MWQz74-mzpOBfi5y9opP-47" target="ndIeQPS9fR7mqByQMIB2-9" edge="1">
          <mxGeometry relative="1" as="geometry" />
        </mxCell>
        <mxCell id="MWQz74-mzpOBfi5y9opP-47" value="Login valid" style="rhombus;whiteSpace=wrap;html=1;fontColor=default;fillColor=none;" parent="1" vertex="1">
          <mxGeometry x="-450.5" y="330" width="80" height="80" as="geometry" />
        </mxCell>
        <mxCell id="MWQz74-mzpOBfi5y9opP-90" value="&lt;font style=&quot;font-size: 10px;&quot;&gt;Non&lt;/font&gt;" style="text;html=1;strokeColor=none;fillColor=none;align=center;verticalAlign=middle;whiteSpace=wrap;rounded=0;fontColor=default;" parent="1" vertex="1">
          <mxGeometry x="-395.5" y="340" width="60" height="30" as="geometry" />
        </mxCell>
        <mxCell id="ndIeQPS9fR7mqByQMIB2-14" style="edgeStyle=orthogonalEdgeStyle;rounded=0;orthogonalLoop=1;jettySize=auto;html=1;" parent="1" source="MWQz74-mzpOBfi5y9opP-56" edge="1">
          <mxGeometry relative="1" as="geometry">
            <mxPoint x="-410.5" y="788" as="targetPoint" />
          </mxGeometry>
        </mxCell>
        <mxCell id="MWQz74-mzpOBfi5y9opP-56" value="Remplir questionnaire" style="whiteSpace=wrap;html=1;fillColor=none;strokeColor=rgb(0, 0, 0);fontColor=rgb(0, 0, 0);" parent="1" vertex="1">
          <mxGeometry x="-470.5" y="660" width="120" height="58" as="geometry" />
        </mxCell>
        <mxCell id="MWQz74-mzpOBfi5y9opP-61" value="" style="endArrow=none;html=1;rounded=0;fontColor=default;strokeWidth=7;" parent="1" edge="1">
          <mxGeometry width="50" height="50" relative="1" as="geometry">
            <mxPoint x="-540" y="790" as="sourcePoint" />
            <mxPoint x="-395.5" y="790" as="targetPoint" />
          </mxGeometry>
        </mxCell>
        <mxCell id="MWQz74-mzpOBfi5y9opP-69" style="edgeStyle=orthogonalEdgeStyle;rounded=0;orthogonalLoop=1;jettySize=auto;html=1;fontColor=default;strokeWidth=1;" parent="1" source="MWQz74-mzpOBfi5y9opP-66" edge="1">
          <mxGeometry relative="1" as="geometry">
            <mxPoint x="-285.5" y="1380" as="targetPoint" />
            <Array as="points">
              <mxPoint x="-505.5" y="900" />
              <mxPoint x="-505.5" y="1380" />
              <mxPoint x="-305.5" y="1380" />
            </Array>
          </mxGeometry>
        </mxCell>
        <mxCell id="MWQz74-mzpOBfi5y9opP-66" value="Quitter" style="rhombus;whiteSpace=wrap;html=1;fontColor=default;fillColor=none;" parent="1" vertex="1">
          <mxGeometry x="-460.5" y="860" width="80" height="80" as="geometry" />
        </mxCell>
        <mxCell id="MWQz74-mzpOBfi5y9opP-65" value="" style="endArrow=classic;html=1;rounded=0;fontColor=default;strokeWidth=1;" parent="1" edge="1">
          <mxGeometry width="50" height="50" relative="1" as="geometry">
            <mxPoint x="-420.76" y="790" as="sourcePoint" />
            <mxPoint x="-420.76" y="860" as="targetPoint" />
          </mxGeometry>
        </mxCell>
        <mxCell id="ndIeQPS9fR7mqByQMIB2-13" style="edgeStyle=orthogonalEdgeStyle;rounded=0;orthogonalLoop=1;jettySize=auto;html=1;entryX=0.5;entryY=0;entryDx=0;entryDy=0;" parent="1" source="MWQz74-mzpOBfi5y9opP-72" target="MWQz74-mzpOBfi5y9opP-76" edge="1">
          <mxGeometry relative="1" as="geometry" />
        </mxCell>
        <mxCell id="MWQz74-mzpOBfi5y9opP-72" value="Sauvegarder" style="rhombus;whiteSpace=wrap;html=1;fontColor=default;fillColor=none;" parent="1" vertex="1">
          <mxGeometry x="-425.5" y="1160" width="88" height="88" as="geometry" />
        </mxCell>
        <mxCell id="MWQz74-mzpOBfi5y9opP-91" value="&lt;font style=&quot;font-size: 10px;&quot;&gt;Non&lt;/font&gt;" style="text;html=1;strokeColor=none;fillColor=none;align=center;verticalAlign=middle;whiteSpace=wrap;rounded=0;fontColor=default;" parent="1" vertex="1">
          <mxGeometry x="-425.5" y="930" width="60" height="30" as="geometry" />
        </mxCell>
        <mxCell id="MWQz74-mzpOBfi5y9opP-92" value="&lt;font style=&quot;font-size: 10px;&quot;&gt;Non&lt;/font&gt;" style="text;html=1;strokeColor=none;fillColor=none;align=center;verticalAlign=middle;whiteSpace=wrap;rounded=0;fontColor=default;" parent="1" vertex="1">
          <mxGeometry x="-345.5" y="1170" width="60" height="30" as="geometry" />
        </mxCell>
        <mxCell id="MWQz74-mzpOBfi5y9opP-93" value="&lt;font style=&quot;font-size: 10px;&quot;&gt;Oui&lt;/font&gt;&lt;span style=&quot;color: rgba(0, 0, 0, 0); font-family: monospace; font-size: 0px; text-align: start;&quot;&gt;%3CmxGraphModel%3E%3Croot%3E%3CmxCell%20id%3D%220%22%2F%3E%3CmxCell%20id%3D%221%22%20parent%3D%220%22%2F%3E%3CmxCell%20id%3D%222%22%20value%3D%22%26lt%3Bfont%20style%3D%26quot%3Bfont-size%3A%2010px%3B%26quot%3B%26gt%3BNon%26lt%3B%2Ffont%26gt%3B%22%20style%3D%22text%3Bhtml%3D1%3BstrokeColor%3Dnone%3BfillColor%3Dnone%3Balign%3Dcenter%3BverticalAlign%3Dmiddle%3BwhiteSpace%3Dwrap%3Brounded%3D0%3BfontColor%3Ddefault%3B%22%20vertex%3D%221%22%20parent%3D%221%22%3E%3CmxGeometry%20x%3D%22320%22%20y%3D%22960%22%20width%3D%2260%22%20height%3D%2230%22%20as%3D%22geometry%22%2F%3E%3C%2FmxCell%3E%3C%2Froot%3E%3C%2FmxGraphModel%3E&lt;/span&gt;" style="text;html=1;strokeColor=none;fillColor=none;align=center;verticalAlign=middle;whiteSpace=wrap;rounded=0;fontColor=default;" parent="1" vertex="1">
          <mxGeometry x="-440.5" y="1248" width="60" height="30" as="geometry" />
        </mxCell>
        <mxCell id="MWQz74-mzpOBfi5y9opP-94" value="&lt;font style=&quot;font-size: 10px;&quot;&gt;Oui&lt;/font&gt;&lt;span style=&quot;color: rgba(0, 0, 0, 0); font-family: monospace; font-size: 0px; text-align: start;&quot;&gt;%3CmxGraphModel%3E%3Croot%3E%3CmxCell%20id%3D%220%22%2F%3E%3CmxCell%20id%3D%221%22%20parent%3D%220%22%2F%3E%3CmxCell%20id%3D%222%22%20value%3D%22%26lt%3Bfont%20style%3D%26quot%3Bfont-size%3A%2010px%3B%26quot%3B%26gt%3BNon%26lt%3B%2Ffont%26gt%3B%22%20style%3D%22text%3Bhtml%3D1%3BstrokeColor%3Dnone%3BfillColor%3Dnone%3Balign%3Dcenter%3BverticalAlign%3Dmiddle%3BwhiteSpace%3Dwrap%3Brounded%3D0%3BfontColor%3Ddefault%3B%22%20vertex%3D%221%22%20parent%3D%221%22%3E%3CmxGeometry%20x%3D%22320%22%20y%3D%22960%22%20width%3D%2260%22%20height%3D%2230%22%20as%3D%22geometry%22%2F%3E%3C%2FmxCell%3E%3C%2Froot%3E%3C%2FmxGraphModel%3E&lt;/span&gt;" style="text;html=1;strokeColor=none;fillColor=none;align=center;verticalAlign=middle;whiteSpace=wrap;rounded=0;fontColor=default;" parent="1" vertex="1">
          <mxGeometry x="-501" y="870" width="60" height="30" as="geometry" />
        </mxCell>
        <mxCell id="MWQz74-mzpOBfi5y9opP-64" value="" style="endArrow=classic;html=1;rounded=0;fontColor=default;strokeWidth=1;entryX=0;entryY=0.5;entryDx=0;entryDy=0;" parent="1" target="MWQz74-mzpOBfi5y9opP-72" edge="1">
          <mxGeometry width="50" height="50" relative="1" as="geometry">
            <mxPoint x="-535.5" y="790" as="sourcePoint" />
            <mxPoint x="-555.5" y="1130" as="targetPoint" />
            <Array as="points">
              <mxPoint x="-535.5" y="1204" />
            </Array>
          </mxGeometry>
        </mxCell>
        <mxCell id="MWQz74-mzpOBfi5y9opP-84" value="" style="endArrow=none;html=1;rounded=0;fontColor=default;strokeWidth=5;" parent="1" edge="1">
          <mxGeometry width="50" height="50" relative="1" as="geometry">
            <mxPoint x="-300.5" y="807" as="sourcePoint" />
            <mxPoint x="-230.5" y="807" as="targetPoint" />
          </mxGeometry>
        </mxCell>
        <mxCell id="MWQz74-mzpOBfi5y9opP-86" style="edgeStyle=orthogonalEdgeStyle;rounded=0;orthogonalLoop=1;jettySize=auto;html=1;fontColor=default;endArrow=classic;endFill=1;strokeWidth=1;" parent="1" source="MWQz74-mzpOBfi5y9opP-72" edge="1">
          <mxGeometry relative="1" as="geometry">
            <mxPoint x="-245.5" y="810" as="targetPoint" />
            <Array as="points">
              <mxPoint x="-245.5" y="1204" />
              <mxPoint x="-245.5" y="810" />
            </Array>
          </mxGeometry>
        </mxCell>
        <mxCell id="MWQz74-mzpOBfi5y9opP-88" style="edgeStyle=orthogonalEdgeStyle;rounded=0;orthogonalLoop=1;jettySize=auto;html=1;fontColor=default;endArrow=classic;endFill=1;strokeWidth=1;" parent="1" source="MWQz74-mzpOBfi5y9opP-66" edge="1">
          <mxGeometry relative="1" as="geometry">
            <mxPoint x="-285.5" y="810" as="targetPoint" />
            <Array as="points">
              <mxPoint x="-420.5" y="1040" />
              <mxPoint x="-285.5" y="1040" />
            </Array>
          </mxGeometry>
        </mxCell>
        <mxCell id="MWQz74-mzpOBfi5y9opP-89" value="" style="endArrow=classic;html=1;rounded=0;fontColor=default;strokeWidth=1;entryX=1.009;entryY=0.768;entryDx=0;entryDy=0;entryPerimeter=0;" parent="1" target="MWQz74-mzpOBfi5y9opP-56" edge="1">
          <mxGeometry width="50" height="50" relative="1" as="geometry">
            <mxPoint x="-265.5" y="807" as="sourcePoint" />
            <mxPoint x="-445.5" y="835" as="targetPoint" />
            <Array as="points">
              <mxPoint x="-265.5" y="705" />
            </Array>
          </mxGeometry>
        </mxCell>
        <mxCell id="ndIeQPS9fR7mqByQMIB2-16" style="edgeStyle=orthogonalEdgeStyle;rounded=0;orthogonalLoop=1;jettySize=auto;html=1;strokeWidth=1;" parent="1" source="MWQz74-mzpOBfi5y9opP-76" edge="1">
          <mxGeometry relative="1" as="geometry">
            <mxPoint x="-285.5" y="1330" as="targetPoint" />
          </mxGeometry>
        </mxCell>
        <mxCell id="MWQz74-mzpOBfi5y9opP-76" value="Enregistrement dans la BDD" style="rounded=0;whiteSpace=wrap;html=1;fontColor=default;fillColor=none;" parent="1" vertex="1">
          <mxGeometry x="-441.5" y="1300" width="120" height="60" as="geometry" />
        </mxCell>
        <mxCell id="MWQz74-mzpOBfi5y9opP-80" value="DÃ©connexion de l&#39;Ã©lÃ¨ve" style="rounded=0;whiteSpace=wrap;html=1;fontColor=default;fillColor=none;" parent="1" vertex="1">
          <mxGeometry x="-225.5" y="1300" width="120" height="60" as="geometry" />
        </mxCell>
        <mxCell id="MWQz74-mzpOBfi5y9opP-82" value="" style="ellipse;html=1;shape=endState;fillColor=#000000;strokeColor=#ff0000;fontColor=default;" parent="1" vertex="1">
          <mxGeometry x="-185.5" y="1410" width="30" height="30" as="geometry" />
        </mxCell>
        <mxCell id="MWQz74-mzpOBfi5y9opP-81" style="edgeStyle=orthogonalEdgeStyle;rounded=0;orthogonalLoop=1;jettySize=auto;html=1;fontColor=default;endArrow=classic;endFill=1;strokeWidth=1;" parent="1" edge="1">
          <mxGeometry relative="1" as="geometry">
            <mxPoint x="-170.5" y="1410" as="targetPoint" />
            <mxPoint x="-170.5" y="1360" as="sourcePoint" />
          </mxGeometry>
        </mxCell>
        <mxCell id="ndIeQPS9fR7mqByQMIB2-7" value="Oui" style="text;html=1;align=center;verticalAlign=middle;resizable=0;points=[];autosize=1;strokeColor=none;fillColor=none;" parent="1" vertex="1">
          <mxGeometry x="-410.5" y="410" width="30" height="20" as="geometry" />
        </mxCell>
        <mxCell id="ndIeQPS9fR7mqByQMIB2-11" style="edgeStyle=orthogonalEdgeStyle;rounded=0;orthogonalLoop=1;jettySize=auto;html=1;entryX=0.5;entryY=0;entryDx=0;entryDy=0;" parent="1" source="ndIeQPS9fR7mqByQMIB2-9" target="MWQz74-mzpOBfi5y9opP-53" edge="1">
          <mxGeometry relative="1" as="geometry" />
        </mxCell>
        <mxCell id="ndIeQPS9fR7mqByQMIB2-9" value="Affichage des questionnaires disponible" style="rounded=0;whiteSpace=wrap;html=1;fillColor=none;" parent="1" vertex="1">
          <mxGeometry x="-470.5" y="460" width="120" height="60" as="geometry" />
        </mxCell>
        <mxCell id="ndIeQPS9fR7mqByQMIB2-15" value="" style="endArrow=none;html=1;rounded=0;strokeWidth=3;" parent="1" edge="1">
          <mxGeometry width="50" height="50" relative="1" as="geometry">
            <mxPoint x="-285.5" y="1410" as="sourcePoint" />
            <mxPoint x="-285.5" y="1300" as="targetPoint" />
          </mxGeometry>
        </mxCell>
        <mxCell id="ndIeQPS9fR7mqByQMIB2-17" value="" style="endArrow=classic;html=1;rounded=0;strokeWidth=1;entryX=0;entryY=0.5;entryDx=0;entryDy=0;" parent="1" target="MWQz74-mzpOBfi5y9opP-80" edge="1">
          <mxGeometry width="50" height="50" relative="1" as="geometry">
            <mxPoint x="-285.5" y="1330" as="sourcePoint" />
            <mxPoint x="-365.5" y="1270" as="targetPoint" />
          </mxGeometry>
        </mxCell>
        <mxCell id="QAEg0vHoT1FQQfkNYD-j-15" value="" style="edgeStyle=orthogonalEdgeStyle;rounded=0;orthogonalLoop=1;jettySize=auto;html=1;fontSize=9;" parent="1" source="QAEg0vHoT1FQQfkNYD-j-10" target="QAEg0vHoT1FQQfkNYD-j-14" edge="1">
          <mxGeometry relative="1" as="geometry" />
        </mxCell>
        <mxCell id="QAEg0vHoT1FQQfkNYD-j-18" style="edgeStyle=orthogonalEdgeStyle;rounded=0;orthogonalLoop=1;jettySize=auto;html=1;exitX=0.5;exitY=0;exitDx=0;exitDy=0;fontSize=9;strokeWidth=1;" parent="1" source="QAEg0vHoT1FQQfkNYD-j-10" edge="1">
          <mxGeometry relative="1" as="geometry">
            <mxPoint x="-300" y="280" as="targetPoint" />
            <Array as="points">
              <mxPoint x="-265" y="280" />
            </Array>
          </mxGeometry>
        </mxCell>
        <mxCell id="QAEg0vHoT1FQQfkNYD-j-10" value="RÃ©initialisation du mot de pass" style="rhombus;whiteSpace=wrap;html=1;fillColor=none;fontSize=9;" parent="1" vertex="1">
          <mxGeometry x="-310" y="324" width="90" height="92" as="geometry" />
        </mxCell>
        <mxCell id="QAEg0vHoT1FQQfkNYD-j-12" value="&lt;font style=&quot;font-size: 10px;&quot;&gt;Non&lt;/font&gt;" style="text;html=1;strokeColor=none;fillColor=none;align=center;verticalAlign=middle;whiteSpace=wrap;rounded=0;fontColor=default;" parent="1" vertex="1">
          <mxGeometry x="-280" y="294" width="60" height="30" as="geometry" />
        </mxCell>
        <mxCell id="QAEg0vHoT1FQQfkNYD-j-13" value="Oui" style="text;html=1;align=center;verticalAlign=middle;resizable=0;points=[];autosize=1;strokeColor=none;fillColor=none;" parent="1" vertex="1">
          <mxGeometry x="-225.5" y="380" width="30" height="20" as="geometry" />
        </mxCell>
        <mxCell id="QAEg0vHoT1FQQfkNYD-j-21" value="" style="edgeStyle=orthogonalEdgeStyle;rounded=0;orthogonalLoop=1;jettySize=auto;html=1;fontSize=9;strokeWidth=1;" parent="1" source="QAEg0vHoT1FQQfkNYD-j-14" target="QAEg0vHoT1FQQfkNYD-j-20" edge="1">
          <mxGeometry relative="1" as="geometry" />
        </mxCell>
        <mxCell id="QAEg0vHoT1FQQfkNYD-j-14" value="RÃ©ception par email d&#39;un lien de rÃ©initialisation de mot de passe" style="whiteSpace=wrap;html=1;fontSize=9;fillColor=none;" parent="1" vertex="1">
          <mxGeometry x="-155" y="340" width="120" height="60" as="geometry" />
        </mxCell>
        <mxCell id="QAEg0vHoT1FQQfkNYD-j-16" value="" style="endArrow=none;html=1;rounded=0;fontSize=9;strokeWidth=2;" parent="1" edge="1">
          <mxGeometry width="50" height="50" relative="1" as="geometry">
            <mxPoint x="-310" y="294" as="sourcePoint" />
            <mxPoint x="-270" y="230" as="targetPoint" />
          </mxGeometry>
        </mxCell>
        <mxCell id="QAEg0vHoT1FQQfkNYD-j-19" value="" style="endArrow=classic;html=1;rounded=0;fontSize=9;strokeWidth=1;entryX=1;entryY=0.5;entryDx=0;entryDy=0;" parent="1" target="7" edge="1">
          <mxGeometry width="50" height="50" relative="1" as="geometry">
            <mxPoint x="-290" y="263" as="sourcePoint" />
            <mxPoint x="-130" y="320" as="targetPoint" />
          </mxGeometry>
        </mxCell>
        <mxCell id="QAEg0vHoT1FQQfkNYD-j-23" style="edgeStyle=orthogonalEdgeStyle;rounded=0;orthogonalLoop=1;jettySize=auto;html=1;fontSize=9;strokeWidth=1;" parent="1" source="QAEg0vHoT1FQQfkNYD-j-20" edge="1">
          <mxGeometry relative="1" as="geometry">
            <mxPoint x="-280" y="250" as="targetPoint" />
          </mxGeometry>
        </mxCell>
        <mxCell id="QAEg0vHoT1FQQfkNYD-j-20" value="RÃ©initialisation du mot de passe" style="whiteSpace=wrap;html=1;fontSize=9;fillColor=none;" parent="1" vertex="1">
          <mxGeometry x="-155" y="220" width="120" height="60" as="geometry" />
        </mxCell>
        <mxCell id="QAEg0vHoT1FQQfkNYD-j-27" style="edgeStyle=orthogonalEdgeStyle;rounded=0;orthogonalLoop=1;jettySize=auto;html=1;entryX=0.5;entryY=0;entryDx=0;entryDy=0;fontSize=9;strokeWidth=1;" parent="1" source="QAEg0vHoT1FQQfkNYD-j-24" target="7" edge="1">
          <mxGeometry relative="1" as="geometry" />
        </mxCell>
        <mxCell id="QAEg0vHoT1FQQfkNYD-j-31" value="" style="edgeStyle=orthogonalEdgeStyle;rounded=0;orthogonalLoop=1;jettySize=auto;html=1;fontSize=9;strokeWidth=1;entryX=1;entryY=0.5;entryDx=0;entryDy=0;" parent="1" source="QAEg0vHoT1FQQfkNYD-j-24" target="QAEg0vHoT1FQQfkNYD-j-14" edge="1">
          <mxGeometry relative="1" as="geometry">
            <mxPoint x="-290.5" y="140" as="targetPoint" />
          </mxGeometry>
        </mxCell>
        <mxCell id="QAEg0vHoT1FQQfkNYD-j-24" value="PremiÃ¨re utilisation" style="rhombus;whiteSpace=wrap;html=1;fontSize=9;fillColor=none;" parent="1" vertex="1">
          <mxGeometry x="-460.5" y="90" width="100" height="100" as="geometry" />
        </mxCell>
        <mxCell id="QAEg0vHoT1FQQfkNYD-j-25" value="&lt;font style=&quot;font-size: 10px;&quot;&gt;Non&lt;/font&gt;" style="text;html=1;strokeColor=none;fillColor=none;align=center;verticalAlign=middle;whiteSpace=wrap;rounded=0;fontColor=default;" parent="1" vertex="1">
          <mxGeometry x="-460.5" y="190" width="60" height="30" as="geometry" />
        </mxCell>
        <mxCell id="QAEg0vHoT1FQQfkNYD-j-28" value="Oui" style="text;html=1;align=center;verticalAlign=middle;resizable=0;points=[];autosize=1;strokeColor=none;fillColor=none;" parent="1" vertex="1">
          <mxGeometry x="-370.5" y="110" width="30" height="20" as="geometry" />
        </mxCell>
      </root>
    </mxGraphModel>
  </diagram>
</mxfile>
